<svg xmlns="http://www.w3.org/2000/svg" fill="none" viewBox="0 0 110 111" height="111" width="110">
<path fill="#4D80CF" d="M71.3978 97.0543C71.3978 97.0543 78.0164 100.441 79.7164 103.807C81.4164 107.173 82.6076 110.29 82.6076 110.29L20 110.1C20 110.1 21.1686 106.51 22.459 103.807C24.2041 99.543 30.9566 97.2323 30.9566 97.2323C30.9566 97.2323 36.7854 96.1439 39.9185 96.6584C43.0516 97.173 46.9218 100.057 46.9218 100.057C46.9218 100.057 54.8372 96.153 60.1729 95.5837C66.6901 95.1519 71.3978 97.0543 71.3978 97.0543Z" clip-rule="evenodd" fill-rule="evenodd"></path>
<mask height="16" width="63" y="95" x="20" maskUnits="userSpaceOnUse" style="mask-type:alpha" id="mask0_1:64">
<path fill="white" d="M71.3978 97.0543C71.3978 97.0543 78.0164 100.441 79.7164 103.807C81.4164 107.173 82.6076 110.29 82.6076 110.29L20 110.1C20 110.1 21.1686 106.51 22.459 103.807C24.2041 99.543 30.9566 97.2323 30.9566 97.2323C30.9566 97.2323 36.7854 96.1439 39.9185 96.6584C43.0516 97.173 46.9218 100.057 46.9218 100.057C46.9218 100.057 54.8372 96.153 60.1729 95.5837C66.6901 95.1519 71.3978 97.0543 71.3978 97.0543Z" clip-rule="evenodd" fill-rule="evenodd"></path>
</mask>
<g mask="url(#mask0_1:64)">
<path fill="#7CA9EE" d="M39.7595 107.036V112.307H62.2875V107.036C62.2875 107.036 54.7034 107.543 50.9209 107.543C47.1385 107.543 39.7595 107.036 39.7595 107.036Z" clip-rule="evenodd" fill-rule="evenodd"></path>
<path fill="#3C6DB8" d="M75.6371 97.6266C75.6371 97.6266 77.2068 108.507 75.6371 111.279C73.5947 114.379 71.0573 112.05 71.0573 112.05L75.6371 97.6266Z" clip-rule="evenodd" fill-rule="evenodd"></path>
<path fill="#90623D" d="M75.1299 98.3076C75.1299 98.3076 76.0904 107.89 75.2321 110.511C69.5303 110.41 67.0464 110.511 67.0464 110.511L66.6962 96.2128C66.6962 96.2128 67.1871 95.3167 68.9425 95.5525C70.6978 95.7883 75.1299 98.3076 75.1299 98.3076Z" clip-rule="evenodd" fill-rule="evenodd"></path>
<mask height="16" width="10" y="95" x="66" maskUnits="userSpaceOnUse" style="mask-type:alpha" id="mask1_1:64">
<path fill="white" d="M75.1299 98.3076C75.1299 98.3076 76.0904 107.89 75.2321 110.511C69.5303 110.41 67.0464 110.511 67.0464 110.511L66.6962 96.2128C66.6962 96.2128 67.1871 95.3167 68.9425 95.5525C70.6978 95.7883 75.1299 98.3076 75.1299 98.3076Z" clip-rule="evenodd" fill-rule="evenodd"></path>
</mask>
<g mask="url(#mask1_1:64)">
<path fill="#604630" d="M67.6472 96.3996C67.6949 99.5952 67.9219 111.116 67.0989 112.307C65.4417 115.387 59 114.008 59 114.008L65.9705 96.1104C65.9705 96.1104 66.9367 93.1672 67.6472 96.3996Z" clip-rule="evenodd" fill-rule="evenodd"></path>
</g>
<path fill="#3C6DB8" d="M27.0663 97.9648C27.0663 97.9648 25.4967 108.845 27.0663 111.617C29.1087 114.717 31.6462 112.388 31.6462 112.388L27.0663 97.9648Z" clip-rule="evenodd" fill-rule="evenodd"></path>
<path fill="#90623D" d="M27.5735 98.6458C27.5735 98.6458 26.6131 108.228 27.4714 110.85C31.8857 110.843 36.0072 110.855 36.0072 110.855V96.551C36.0072 96.551 35.5163 95.6549 33.7609 95.8907C32.0056 96.1265 27.5735 98.6458 27.5735 98.6458Z" clip-rule="evenodd" fill-rule="evenodd"></path>
<mask height="16" width="10" y="95" x="27" maskUnits="userSpaceOnUse" style="mask-type:alpha" id="mask2_1:64">
<path fill="white" d="M27.5735 98.6458C27.5735 98.6458 26.6131 108.228 27.4714 110.85C31.8857 110.843 36.0072 110.855 36.0072 110.855V96.551C36.0072 96.551 35.5163 95.6549 33.7609 95.8907C32.0056 96.1265 27.5735 98.6458 27.5735 98.6458Z" clip-rule="evenodd" fill-rule="evenodd"></path>
</mask>
<g mask="url(#mask2_1:64)">
<path fill="#604630" d="M35.0562 96.7377C35.0085 99.9334 34.7815 111.454 35.6045 112.645C37.2618 115.725 43.7034 114.346 43.7034 114.346L36.7329 96.4486C36.7329 96.4486 35.7668 93.5054 35.0562 96.7377Z" clip-rule="evenodd" fill-rule="evenodd"></path>
</g>
</g>
<path fill="#5A8CD9" d="M56.1844 93.6069C54.2923 96.9352 50.2103 99.473 50.2103 99.473C50.2103 99.473 45.0457 95.5616 45.5315 92.9219C44.7157 91.5878 45.5315 87.4155 45.5315 87.4155C45.5315 87.4155 40.0883 88.7812 37.1212 90.1251C34.1542 91.4689 29.0401 94.7192 31.8909 97.5019C32.3667 97.9085 33.1841 97.3877 33.9162 97.3582C35.3552 97.2211 36.4201 97.3581 36.9616 97.5622C41.1714 98.9318 44.8096 100.849 49.3068 104.99C50.4611 105.947 51.825 104.99 51.825 104.99C51.825 104.99 58.9073 97.6291 66.9224 96.7329C67.6626 96.6489 68.9641 96.7511 70.359 96.921C71.278 97.2237 71.4577 97.408 71.8598 96.921C73.6974 94.1006 67.3323 89.7998 62.1318 88.9988C56.9313 88.1978 51.9584 87.3577 51.9584 87.3577C51.9584 87.3577 56.6208 90.427 56.1844 93.6069Z" clip-rule="evenodd" fill-rule="evenodd"></path>
<mask height="19" width="42" y="87" x="31" maskUnits="userSpaceOnUse" style="mask-type:alpha" id="mask3_1:64">
<path fill="white" d="M56.1844 93.6069C54.2923 96.9352 50.2103 99.473 50.2103 99.473C50.2103 99.473 45.0457 95.5616 45.5315 92.9219C44.7157 91.5878 45.5315 87.4155 45.5315 87.4155C45.5315 87.4155 40.0883 88.7812 37.1212 90.1251C34.1542 91.4689 29.0401 94.7192 31.8909 97.5019C32.3667 97.9085 33.1841 97.3877 33.9162 97.3582C35.3552 97.2211 36.4201 97.3581 36.9616 97.5622C41.1714 98.9318 44.8096 100.849 49.3068 104.99C50.4611 105.947 51.825 104.99 51.825 104.99C51.825 104.99 58.9073 97.6291 66.9224 96.7329C67.6626 96.6489 68.9641 96.7511 70.359 96.921C71.278 97.2237 71.4577 97.408 71.8598 96.921C73.6974 94.1006 67.3323 89.7998 62.1318 88.9988C56.9313 88.1978 51.9584 87.3577 51.9584 87.3577C51.9584 87.3577 56.6208 90.427 56.1844 93.6069Z" clip-rule="evenodd" fill-rule="evenodd"></path>
</mask>
<g mask="url(#mask3_1:64)">
<path fill="#3C6DB8" d="M62.6163 97.8414C62.6163 97.8414 68.1275 95.6045 70.3161 96.2134C71.8107 96.6314 72.1832 93.9215 72.1832 93.9215L74.8325 99.5011L62.6163 97.8414Z" clip-rule="evenodd" fill-rule="evenodd"></path>
<path fill="#3C6DB8" d="M31 95.8517C31 95.8517 31.3662 96.8307 32.8412 96.7113C34.3161 96.592 37.6832 97.9286 37.6832 97.9286L31 98.8915V95.8255" clip-rule="evenodd" fill-rule="evenodd"></path>
</g>
<ellipse fill="#2A3547" ry="0.412297" rx="0.481013" cy="98.4123" cx="55.7014"></ellipse>
<path fill="#2B4D82" d="M55.3881 98.3266V108.597H56.0612V98.3266C56.0612 98.3266 56.0612 98.1696 55.7247 98.1696C55.3881 98.1696 55.3881 98.3266 55.3881 98.3266Z" clip-rule="evenodd" fill-rule="evenodd"></path>
<rect fill="#2A3547" height="1.64919" width="0.288608" y="108.146" x="55.5777"></rect>
<ellipse fill="#2B4D82" ry="0.824593" rx="0.721519" cy="108.221" cx="55.7215"></ellipse>
<ellipse fill="#2A3547" ry="0.412297" rx="0.481013" cy="98.4123" cx="44.7014"></ellipse>
<path fill="#2B4D82" d="M44.3881 98.3266V108.597H45.0612V98.3266C45.0612 98.3266 45.0612 98.1696 44.7247 98.1696C44.3881 98.1696 44.3881 98.3266 44.3881 98.3266Z" clip-rule="evenodd" fill-rule="evenodd"></path>
<rect fill="#2A3547" height="1.64919" width="0.288608" y="108.146" x="44.5777"></rect>
<ellipse fill="#2B4D82" ry="0.824593" rx="0.721519" cy="108.221" cx="44.7215"></ellipse>
<path fill="#3C6DB8" d="M45.5272 90.5562C39.9671 90.7809 33.7225 92.774 35.2277 94.7621C36.729 96.0025 39.503 93.7382 42.5411 95.6164C44.3601 96.741 44.7331 97.0827 46.4026 98.7005C47.2357 99.5078 48.803 102.043 50.2226 101.999C51.6423 101.956 52.9852 99.818 54.0933 98.7592C54.7473 98.1342 56.9358 95.5527 59.0078 94.833C61.2403 94.0576 62.5391 94.7784 65.8025 94.6865C69.0659 94.5945 65.5579 90.8522 56.5188 90.5562C52.9245 90.1075 51.6563 89.569 45.5272 90.5562Z" clip-rule="evenodd" fill-rule="evenodd"></path>
<path fill="#FFB5A1" d="M43 88.96C43 88.96 42.8901 91.8114 43.1369 92.5948C43.8221 95.1836 46.7612 99.4156 49.6929 99.2635C52.9263 99.3378 56.0408 94.9682 56.5231 92.5948C56.9261 91.4275 56.3816 89.7382 56.5978 88.96C57.3789 88.2155 50.2164 89.4858 50.2164 89.4858L43 88.96Z" clip-rule="evenodd" fill-rule="evenodd"></path>
<mask height="12" width="15" y="88" x="42" maskUnits="userSpaceOnUse" style="mask-type:alpha" id="mask4_1:64">
<path fill="white" d="M43 88.96C43 88.96 42.8901 91.8114 43.1369 92.5948C43.8221 95.1836 46.7612 99.4156 49.6929 99.2635C52.9263 99.3378 56.0408 94.9682 56.5231 92.5948C56.9261 91.4275 56.3816 89.7382 56.5978 88.96C57.3789 88.2155 50.2164 89.4858 50.2164 89.4858L43 88.96Z" clip-rule="evenodd" fill-rule="evenodd"></path>
</mask>
<g mask="url(#mask4_1:64)">
<path fill="white" d="M42.6823 95.9719C42.6823 95.9719 49.5069 98.7894 56.1702 95.966C63.3702 92.4513 53.4365 105.052 53.4365 105.052L44.6035 102.215L42.6823 95.9719Z" clip-rule="evenodd" fill-rule="evenodd"></path>
<g opacity="0.348749" style="mix-blend-mode:multiply">
<path fill="#E89A85" d="M42.834 89.4198C42.834 89.4198 51.0072 94.3171 55.3997 94.3171C59.7922 94.3171 59.834 88.3171 59.834 88.3171L42.834 89.4198Z" clip-rule="evenodd" fill-rule="evenodd"></path>
</g>
</g>
<path fill="#EDB41F" d="M90.5979 40.2689C85.7134 47.5833 77.4886 47.1523 69.7663 47.8522C62.0439 48.5521 52.116 51.2501 52.116 51.2501C52.116 51.2501 54.6005 39.7951 59.9731 37.283C63.5034 35.6322 51.8761 27.2997 69.2949 25.6483C92.3172 22.171 95.4823 32.9545 90.5979 40.2689Z" clip-rule="evenodd" fill-rule="evenodd"></path>
<mask height="28" width="41" y="24" x="52" maskUnits="userSpaceOnUse" style="mask-type:alpha" id="mask5_1:64">
<path fill="white" d="M90.5979 40.2689C85.7134 47.5833 77.4886 47.1523 69.7663 47.8522C62.0439 48.5521 52.116 51.2501 52.116 51.2501C52.116 51.2501 54.6005 39.7951 59.9731 37.283C63.5034 35.6322 51.8761 27.2997 69.2949 25.6483C92.3172 22.171 95.4823 32.9545 90.5979 40.2689Z" clip-rule="evenodd" fill-rule="evenodd"></path>
</mask>
<g mask="url(#mask5_1:64)">
<g opacity="0.647205" style="mix-blend-mode:multiply">
<path fill="#E9A900" d="M78.2734 45.8362C78.2734 45.8362 91.619 43.799 92.6259 31.6659C94.068 18.0421 98.9158 41.1884 98.9158 41.1884L91.4132 50.8975L74.4349 48.6489L78.2734 45.8362Z" clip-rule="evenodd" fill-rule="evenodd"></path>
</g>
</g>
<path fill="#FFB5A1" d="M74.9074 62.3109C74.9074 62.3109 78.8542 53.0584 85.4505 55.8548C92.0468 58.6513 85.214 72.1641 77.603 70.5689C69.9919 68.9736 74.9074 62.3109 74.9074 62.3109Z" clip-rule="evenodd" fill-rule="evenodd"></path>
<path fill="#C26B6B" d="M82.228 62.1744C82.5545 62.1449 82.7954 61.8564 82.766 61.5298C82.7366 61.2033 82.448 60.9624 82.1215 60.9918C80.3388 61.1524 78.8777 62.4278 77.911 63.5418C77.4162 64.112 77.0243 64.6709 76.7563 65.0865C76.6219 65.2948 76.5178 65.4684 76.4467 65.5912C76.4111 65.6526 76.3836 65.7014 76.3647 65.7356L76.3428 65.7757L76.3367 65.787L76.3349 65.7904L76.3339 65.7923C76.1803 66.082 76.2908 66.4413 76.5805 66.5949C76.8701 66.7483 77.2293 66.638 77.3829 66.3485L77.3834 66.3475L77.387 66.3407L77.4739 66.1866C77.5368 66.0781 77.6311 65.9207 77.7541 65.73C78.0007 65.3477 78.3593 64.8369 78.8078 64.32C78.9073 64.2053 79.01 64.0917 79.1158 63.9802C79.1254 63.9834 79.1351 63.9867 79.1452 63.9901C79.3201 64.0503 79.5606 64.1475 79.8179 64.2932C80.3372 64.5872 80.8838 65.0542 81.1487 65.7786C81.2613 66.0865 81.6022 66.2448 81.9101 66.1322C82.2181 66.0196 82.3764 65.6787 82.2638 65.3707C81.8686 64.2903 81.067 63.636 80.403 63.26C80.2957 63.1993 80.1909 63.1451 80.0905 63.097C80.7444 62.6005 81.4681 62.2428 82.228 62.1744Z" clip-rule="evenodd" fill-rule="evenodd"></path>
<path fill="#FFB5A1" d="M27.2035 63.087C27.2035 63.087 23.2567 53.8345 16.6604 56.6309C10.0641 59.4274 16.8969 72.9402 24.508 71.3449C32.119 69.7497 27.2035 63.087 27.2035 63.087Z" clip-rule="evenodd" fill-rule="evenodd"></path>
<path stroke-linecap="round" stroke-width="1.18733" stroke="#C26B6B" d="M24.0301 66.1874C24.0301 66.1874 21.7996 61.9781 18.7138 61.7002"></path>
<path stroke-linecap="round" stroke-width="1.18733" stroke="#C26B6B" d="M22.1286 63.7422C22.1286 63.7422 20.0923 64.1798 19.4322 65.9847"></path>
<path fill="#FFCDBC" d="M22.3775 52.9183C21.6745 37.2134 34.2172 24.0967 49.9379 24.0967H50.9716C66.3826 24.0967 78.8053 36.7219 78.556 52.1309L78.3561 64.4899C78.1242 78.8228 66.954 90.5902 52.6525 91.5675L50.132 91.7397L48.4902 91.6202C34.541 90.6044 23.5588 79.3109 22.9334 65.3387L22.3775 52.9183Z" clip-rule="evenodd" fill-rule="evenodd"></path>
<mask height="68" width="57" y="24" x="22" maskUnits="userSpaceOnUse" style="mask-type:alpha" id="mask6_1:64">
<path fill="white" d="M22.3775 52.9183C21.6745 37.2134 34.2172 24.0967 49.9379 24.0967H50.9716C66.3826 24.0967 78.8053 36.7219 78.556 52.1309L78.3561 64.4899C78.1242 78.8228 66.954 90.5902 52.6525 91.5675L50.132 91.7397L48.4902 91.6202C34.541 90.6044 23.5588 79.3109 22.9334 65.3387L22.3775 52.9183Z" clip-rule="evenodd" fill-rule="evenodd"></path>
</mask>
<g mask="url(#mask6_1:64)">
<circle fill="#FFA2A2" r="6.53502" cy="73.1502" cx="27.601" opacity="0.624907"></circle>
<circle fill="#FFA2A2" r="6.53502" cy="72.3333" cx="73.3462" opacity="0.624907"></circle>
</g>
<path fill="#382222" d="M19.8317 41.9845C19.8317 41.9845 17.5267 47.6967 19.8317 52.4484C22.1367 57.2001 29.6749 54.06 33.1083 51.2711C42.1774 54.0414 47.3694 49.1639 47.3694 49.1639C47.3694 49.1639 53.6982 52.941 60.5054 51.2625C66.7726 54.6814 73.5272 51.6186 73.5272 51.6186C73.5272 51.6186 76.4811 58.0962 79.5748 55.0925C81.9812 51.8291 80.8529 42.2788 80.8529 42.2788C80.8529 42.2788 59.0273 22.1867 48.6887 22.1058C38.3501 22.025 21.8599 41.8174 21.8599 41.8174L19.8317 41.9845Z" clip-rule="evenodd" fill-rule="evenodd"></path>
<mask height="34" width="64" y="22" x="18" maskUnits="userSpaceOnUse" style="mask-type:alpha" id="mask7_1:64">
<path fill="white" d="M19.8317 41.9845C19.8317 41.9845 17.5267 47.6967 19.8317 52.4484C22.1367 57.2001 29.6749 54.06 33.1083 51.2711C42.1774 54.0414 47.3694 49.1639 47.3694 49.1639C47.3694 49.1639 53.6982 52.941 60.5054 51.2625C66.7726 54.6814 73.5272 51.6186 73.5272 51.6186C73.5272 51.6186 76.4811 58.0962 79.5748 55.0925C81.9812 51.8291 80.8529 42.2788 80.8529 42.2788C80.8529 42.2788 59.0273 22.1867 48.6887 22.1058C38.3501 22.025 21.8599 41.8174 21.8599 41.8174L19.8317 41.9845Z" clip-rule="evenodd" fill-rule="evenodd"></path>
</mask>
<g mask="url(#mask7_1:64)">
<g opacity="0.272182" style="mix-blend-mode:multiply">
<path fill="#352626" d="M40.9386 47.3681C40.9386 47.3681 39.0824 35.381 48.1455 35.381C57.2085 35.381 61.0272 40.2653 61.0272 40.2653C61.0272 40.2653 61.343 28.6392 60.3843 28.6392C59.4257 28.6392 34.1769 29.2687 34.1769 30.1769C34.1769 31.0851 32.3315 48.4455 32.3315 48.4455L40.9386 47.3681Z" clip-rule="evenodd" fill-rule="evenodd"></path>
</g>
<g opacity="0.272182" style="mix-blend-mode:multiply">
<path fill="#352626" d="M34.1769 51.9058L30.2967 49.799C30.2967 49.799 25.4761 56.2957 20.6842 53.7834C15.8923 51.2711 28.0993 58.8901 28.0993 58.8901L34.1769 51.9058Z" clip-rule="evenodd" fill-rule="evenodd"></path>
</g>
<g opacity="0.272182" style="mix-blend-mode:multiply">
<path fill="#352626" d="M48.1455 48.9968C48.1455 48.9968 55.0569 51.1525 61.3404 49.799C67.538 53.985 74.186 48.9968 74.186 48.9968C74.186 48.9968 77.0208 56.0441 79.6427 56.0441C82.2645 56.0441 72.342 61.2182 72.342 61.2182L52.4137 54.3446L48.1455 48.9968Z" clip-rule="evenodd" fill-rule="evenodd"></path>
</g>
</g>
<path fill="#FFC631" d="M54.9502 12.6486C83.0757 16.7707 81.6842 47.112 81.6842 47.112C81.6842 47.112 68.878 49.799 49.4009 49.799C29.9238 49.799 18.6792 48.1727 18.6792 48.1727C18.6792 48.1727 17.463 14.6116 48.3766 12.4891C48.88 11.0333 50.1502 10 51.6376 10C53.1788 10 54.4868 11.1093 54.9502 12.6486Z" clip-rule="evenodd" fill-rule="evenodd"></path>
<mask height="40" width="64" y="10" x="18" maskUnits="userSpaceOnUse" style="mask-type:alpha" id="mask8_1:64">
<path fill="white" d="M54.9502 12.6486C83.0757 16.7707 81.6842 47.112 81.6842 47.112C81.6842 47.112 68.878 49.799 49.4009 49.799C29.9238 49.799 18.6792 48.1727 18.6792 48.1727C18.6792 48.1727 17.463 14.6116 48.3766 12.4891C48.88 11.0333 50.1502 10 51.6376 10C53.1788 10 54.4868 11.1093 54.9502 12.6486Z" clip-rule="evenodd" fill-rule="evenodd"></path>
</mask>
<g mask="url(#mask8_1:64)">
<path fill="#E9A900" d="M51.1171 8.74265C51.1171 8.74265 53.1266 10.9814 52.1871 12.3711C53.3733 12.2746 54.5066 12.5084 55.1298 12.6287C63.3927 16.6224 68.4428 22.6632 61.3404 26.2967C53.3511 30.3839 34.1769 31.085 30.2967 68.1753C28.0953 78.7569 54.6162 73.596 54.6162 73.596C54.6162 73.596 88.9809 65.1233 89.1599 63.0774C89.3389 61.0314 90.9612 15.7729 90.9612 15.7729L51.1171 8.74265Z" clip-rule="evenodd" fill-rule="evenodd"></path>
<path fill="#2C1A1A" d="M59.4999 44C55.4999 47 40.4999 45.5 37.4999 44C37.4999 39.5 38.4999 29 50.4999 30C59.9999 31 61.3282 40 59.4999 44Z"></path>
</g>
<ellipse fill="#623D3D" ry="3.88017" rx="3.10414" cy="64.6463" cx="63.6661"></ellipse>
<ellipse fill="#623D3D" ry="3.88017" rx="3.10414" cy="64.6463" cx="37.281"></ellipse>
<path fill="#623D3D" d="M60.3846 56.4911C60.3846 56.4911 61.8424 56.0452 64.4674 55.7693C67.0923 55.4934 72.1196 56.1177 72.1196 56.1177C72.1196 56.1177 68.0015 52.9641 63.7126 53.6033C60.6396 54.2033 60.3846 56.4911 60.3846 56.4911Z" clip-rule="evenodd" fill-rule="evenodd"></path>
<path fill="#623D3D" d="M41.3004 56.4911C41.3004 56.4911 39.8426 56.0452 37.2176 55.7693C34.5927 55.4934 29.5654 56.1177 29.5654 56.1177C29.5654 56.1177 33.6835 52.9641 37.9724 53.6033C41.0454 54.2033 41.3004 56.4911 41.3004 56.4911Z" clip-rule="evenodd" fill-rule="evenodd"></path>
<path fill="#F28080" d="M49.8976 58.6318C50.0123 58.3258 50.3637 58.1671 50.6825 58.2771C51.0014 58.3871 51.1668 58.7243 51.0522 59.0302L50.8298 59.6297C48.5169 65.9305 48.0971 69.259 49.0638 69.478L49.0774 69.4804L49.2698 69.4768C50.295 69.4365 51.3381 69.1344 52.4036 68.564L52.6499 68.4276C52.9409 68.261 53.3175 68.3524 53.491 68.6316C53.6646 68.9108 53.5694 69.2722 53.2784 69.4387C51.9512 70.1982 50.6227 70.6059 49.2984 70.6539L49.0336 70.6587L48.957 70.6541C46.4783 70.355 46.9855 66.4 49.8976 58.6318Z"></path>
<path fill="url(#paint0_linear_1:64)" d="M44.8 75.3521L55.3954 73.8C55.3954 73.8 55.3954 80.2731 51.2296 81.2686C47.0638 82.264 44.8 75.3521 44.8 75.3521Z" clip-rule="evenodd" fill-rule="evenodd"></path>
<defs>
<linearGradient gradientUnits="userSpaceOnUse" y2="83.8119" x2="38.6169" y1="70.3717" x1="35.7862" id="paint0_linear_1:64">
<stop stop-color="#D08787"></stop>
<stop stop-color="#A34F4F" offset="1"></stop>
</linearGradient>
</defs>
</svg>
